<?xml version="1.0" standalone="no"?>
<!DOCTYPE svg PUBLIC "-//W3C//DTD SVG 20010904//EN"
 "http://www.w3.org/TR/2001/REC-SVG-20010904/DTD/svg10.dtd">
<svg version="1.0" xmlns="http://www.w3.org/2000/svg"
 width="360.000000pt" height="360.000000pt" viewBox="0 0 360.000000 360.000000"
 preserveAspectRatio="xMidYMid meet">
<metadata>
Created by potrace 1.11, written by Peter Selinger 2001-2013
</metadata>
<g transform="translate(0.000000,360.000000) scale(0.100000,-0.100000)"
fill="#000000" stroke="none">
<path d="M1738 3284 c-58 -18 -118 -74 -118 -110 0 -16 -4 -23 -11 -18 -11 6
-8 40 6 77 10 24 -19 22 -58 -5 -47 -32 -67 -59 -67 -94 0 -27 -5 -32 -37 -43
-66 -20 -175 -101 -210 -156 -70 -110 -88 -130 -140 -155 -68 -32 -69 -50 -2
-50 l51 0 -20 -32 c-35 -57 -53 -140 -50 -224 2 -51 7 -79 16 -82 8 -2 12 7
12 27 0 16 5 33 10 36 6 3 10 -4 10 -17 0 -13 14 -52 30 -86 18 -38 30 -80 30
-103 0 -76 55 -149 111 -149 22 0 36 -12 72 -62 24 -35 55 -91 69 -125 l25
-61 -32 -18 c-48 -25 -61 -56 -81 -184 -10 -63 -23 -122 -31 -131 -14 -17 -18
-89 -4 -89 4 0 6 -23 3 -51 -3 -28 1 -68 8 -89 11 -34 10 -43 -9 -84 -21 -42
-22 -51 -12 -118 10 -62 16 -77 42 -101 23 -22 39 -28 60 -25 22 4 29 1 29
-12 0 -9 9 -25 20 -35 11 -10 20 -30 20 -44 0 -14 7 -54 15 -88 13 -55 13 -65
-2 -93 -15 -31 -14 -35 6 -84 l21 -51 -40 -75 c-66 -126 -50 -208 45 -226 50
-9 113 1 144 23 14 11 35 38 46 61 l20 41 70 -3 c39 -2 87 -11 107 -20 43 -19
121 -21 167 -5 63 22 61 103 -3 153 -27 20 -32 30 -28 51 2 15 -1 37 -8 50
-10 19 -10 30 0 54 6 16 9 34 6 39 -3 6 0 28 8 50 8 22 17 65 21 95 6 44 13
60 31 72 13 8 24 22 24 30 0 9 9 15 21 15 12 0 36 9 55 20 26 17 35 31 43 71
17 76 13 130 -9 164 -24 36 -25 51 -4 72 12 13 15 31 12 80 -2 35 -1 63 3 63
16 0 15 41 -1 81 -10 24 -26 91 -35 149 -19 119 -29 140 -88 176 -23 15 -44
28 -46 30 -12 10 36 89 78 129 27 25 54 59 61 75 10 25 18 30 45 30 37 0 79
29 100 71 15 27 20 79 16 139 -1 21 8 85 25 178 4 19 10 22 54 22 28 0 50 4
50 8 0 4 -18 26 -40 47 -40 39 -71 111 -74 174 -1 27 -16 47 -81 112 -38 37
-39 39 -15 39 28 0 120 59 120 78 0 8 -16 12 -49 12 -62 0 -99 16 -185 79 -38
28 -79 51 -91 51 -34 0 -36 10 -10 45 23 29 33 65 19 65 -3 0 -20 -12 -37 -26
-28 -23 -37 -25 -82 -20 -27 4 -89 9 -137 13 -49 3 -88 9 -88 13 0 4 20 24 45
45 25 20 43 41 40 46 -9 13 -52 10 -107 -7z m-158 -591 c0 -45 -16 -60 -24
-23 -6 33 -1 50 15 50 5 0 9 -12 9 -27z m244 -48 c9 -13 30 -32 47 -41 17 -8
29 -18 26 -21 -13 -12 -121 63 -112 78 10 15 22 10 39 -16z m165 -82 c24 -3
63 -17 85 -29 l41 -24 -65 0 c-77 0 -175 22 -146 33 11 5 16 13 12 23 -5 12
-2 15 11 10 9 -4 37 -10 62 -13z m-466 -27 l39 -24 -51 -3 c-52 -4 -58 1 -45
35 8 21 11 20 57 -8z m110 -60 c-3 -5 0 -6 8 -4 8 3 32 -3 54 -13 54 -25 144
-24 230 2 100 30 119 32 180 24 l55 -6 0 -48 0 -48 -61 -1 c-97 -1 -160 -25
-208 -77 -22 -24 -41 -49 -41 -55 0 -6 -25 -10 -58 -10 -54 0 -58 2 -70 30
-15 34 -79 81 -132 98 -19 6 -60 13 -90 16 -41 4 -58 10 -72 28 -14 19 -14 24
-3 26 8 2 17 12 20 22 3 10 14 21 23 23 29 9 170 2 165 -7z m-380 -160 c3 -8
-1 -17 -9 -20 -22 -9 -16 -26 9 -26 46 0 78 -66 68 -142 -2 -17 -65 18 -82 46
-26 43 -25 156 1 156 4 0 10 -6 13 -14z m157 10 c0 -3 -4 -8 -10 -11 -5 -3
-10 -1 -10 4 0 6 5 11 10 11 6 0 10 -2 10 -4z m946 -91 c-8 -51 -45 -99 -85
-110 -23 -7 -24 -6 -17 34 6 38 39 81 89 112 5 4 6 13 2 20 -6 11 -5 11 5 2 9
-8 10 -25 6 -58z m-662 -1 c14 -54 -59 -124 -129 -124 l-30 0 34 17 c34 17 34
18 10 23 -27 7 -38 35 -16 43 8 3 26 -1 40 -8 24 -12 26 -12 36 17 6 17 11 42
11 55 0 20 3 22 19 14 10 -6 22 -22 25 -37z m266 -71 c25 -40 81 -54 114 -30
17 12 17 14 2 20 -17 7 -22 36 -6 38 6 1 16 2 23 3 6 1 18 -2 24 -7 7 -5 18
-7 25 -4 20 7 40 -19 24 -32 -23 -19 -85 -41 -117 -41 -113 0 -197 91 -142
152 17 19 18 18 28 -29 6 -26 18 -58 25 -70z m-380 97 c0 -5 -7 -10 -15 -10
-8 0 -15 5 -15 10 0 6 7 10 15 10 8 0 15 -4 15 -10z m510 0 c0 -5 -4 -10 -10
-10 -5 0 -10 5 -10 10 0 6 5 10 10 10 6 0 10 -4 10 -10z m97 -44 c-4 -9 -11
-16 -18 -16 -6 0 -8 7 -5 16 3 9 6 25 7 37 l0 22 11 -22 c6 -12 8 -29 5 -37z
m-332 -43 c63 -114 240 -137 339 -45 l28 27 -7 -25 c-25 -83 -98 -151 -194
-181 -84 -26 -275 -36 -381 -20 -85 13 -172 49 -213 89 -37 35 -77 114 -76
149 l0 28 16 -31 c8 -17 33 -43 55 -57 98 -64 236 -40 293 50 24 37 37 43 90
38 25 -2 44 -10 50 -22z m-403 -13 c10 -10 14 -22 9 -24 -10 -6 -51 22 -51 35
0 16 25 10 42 -11z m64 -287 c-11 -11 -19 6 -11 24 8 17 8 17 12 0 3 -10 2
-21 -1 -24z m168 2 c3 -8 10 -15 16 -15 5 0 10 7 10 15 0 24 138 21 156 -2 11
-15 15 -16 23 -4 5 7 14 11 19 7 19 -11 2 -34 -30 -41 -17 -4 -32 -15 -35 -25
-10 -37 -106 -37 -116 0 -3 10 -18 21 -36 25 -35 7 -45 19 -37 40 7 19 22 19
30 0z m-70 -80 c3 -8 1 -15 -4 -15 -6 0 -10 7 -10 15 0 8 2 15 4 15 2 0 6 -7
10 -15z m-144 -5 c0 -5 -5 -10 -11 -10 -5 0 -7 5 -4 10 3 6 8 10 11 10 2 0 4
-4 4 -10z m667 -67 c-3 -10 -5 -4 -5 12 0 17 2 24 5 18 2 -7 2 -21 0 -30z
m-657 17 c0 -5 -2 -10 -4 -10 -3 0 -8 5 -11 10 -3 6 -1 10 4 10 6 0 11 -4 11
-10z m340 1 c0 -12 -28 -18 -57 -13 -38 7 -26 22 17 22 22 0 40 -4 40 -9z
m-340 -41 c-8 -5 -17 -7 -19 -4 -3 3 1 9 9 14 8 5 17 7 19 4 3 -3 -1 -9 -9
-14z m345 -212 c4 -117 8 -215 9 -218 0 -2 -15 -8 -34 -11 -19 -3 -44 -10 -54
-14 -18 -8 -19 -3 -13 161 4 93 7 197 7 232 l0 62 39 0 39 0 7 -212z m-185
159 c0 -7 -4 -6 -10 3 -8 12 -10 12 -10 1 0 -8 -3 -12 -6 -8 -9 9 6 28 17 22
5 -4 9 -12 9 -18z m-163 -34 c-3 -10 -5 -4 -5 12 0 17 2 24 5 18 2 -7 2 -21 0
-30z m130 -5 c-3 -8 -6 -5 -6 6 -1 11 2 17 5 13 3 -3 4 -12 1 -19z m33 2 c0
-5 -4 -10 -10 -10 -5 0 -10 5 -10 10 0 6 5 10 10 10 6 0 10 -4 10 -10z m342
-42 c-9 -9 -12 -7 -12 12 0 19 3 21 12 12 9 -9 9 -15 0 -24z m-355 6 c-3 -3
-12 -4 -19 -1 -8 3 -5 6 6 6 11 1 17 -2 13 -5z m0 -40 c-3 -3 -12 -4 -19 -1
-8 3 -5 6 6 6 11 1 17 -2 13 -5z m-230 -26 c-3 -8 -6 -5 -6 6 -1 11 2 17 5 13
3 -3 4 -12 1 -19z m647 14 c3 -5 -1 -9 -9 -9 -8 0 -12 4 -9 9 3 4 7 8 9 8 2 0
6 -4 9 -8z m-664 -21 c0 -5 -7 -12 -16 -15 -14 -5 -15 -4 -4 9 14 17 20 19 20
6z m800 -1 c0 -5 -2 -10 -4 -10 -3 0 -8 5 -11 10 -3 6 -1 10 4 10 6 0 11 -4
11 -10z m-123 -62 c-3 -8 -6 -5 -6 6 -1 11 2 17 5 13 3 -3 4 -12 1 -19z m-77
-28 c-8 -5 -22 -10 -30 -10 -13 0 -13 1 0 10 8 5 22 10 30 10 13 0 13 -1 0
-10z m-479 -61 c-5 -13 -10 -19 -10 -12 -1 15 10 45 15 40 3 -2 0 -15 -5 -28z
m106 -11 c-3 -7 -5 -2 -5 12 0 14 2 19 5 13 2 -7 2 -19 0 -25z m422 -18 c0
-10 -3 -8 -9 5 -12 27 -12 43 0 25 5 -8 9 -22 9 -30z m-512 8 c-3 -8 -6 -5 -6
6 -1 11 2 17 5 13 3 -3 4 -12 1 -19z m-82 -137 c1 -73 -3 -135 -7 -137 -4 -3
-8 9 -8 26 0 17 -6 33 -14 36 -8 3 -16 14 -19 25 -3 10 -10 19 -16 19 -7 0
-11 -24 -11 -64 0 -59 2 -66 28 -85 15 -11 21 -21 14 -21 -7 0 -23 11 -36 23
-41 41 -45 178 -7 202 6 3 11 24 11 45 0 29 6 43 22 54 13 9 27 15 33 13 6 -2
10 -55 10 -136z m210 129 c3 -5 -1 -10 -10 -10 -9 0 -13 5 -10 10 3 6 8 10 10
10 2 0 7 -4 10 -10z m526 0 c13 -8 19 -21 19 -47 0 -19 10 -51 21 -70 19 -30
21 -44 16 -106 -5 -58 -10 -74 -29 -89 -33 -25 -45 -22 -21 5 16 16 22 37 24
81 2 33 -1 61 -7 63 -10 3 -44 -48 -55 -82 -3 -11 -7 42 -7 118 -1 140 1 147
39 127z m-494 -26 c-3 -3 -12 -4 -19 -1 -8 3 -5 6 6 6 11 1 17 -2 13 -5z m329
-31 c-11 -11 -17 4 -9 23 7 18 8 18 11 1 2 -10 1 -21 -2 -24z m-383 12 c-3 -9
-8 -14 -10 -11 -3 3 -2 9 2 15 9 16 15 13 8 -4z m414 -22 c-3 -10 -5 -4 -5 12
0 17 2 24 5 18 2 -7 2 -21 0 -30z m-87 7 c0 -5 -10 -10 -22 -9 -22 0 -22 1 -3
9 11 5 21 9 23 9 1 1 2 -3 2 -9z m45 -20 c3 -5 2 -10 -4 -10 -5 0 -13 5 -16
10 -3 6 -2 10 4 10 5 0 13 -4 16 -10z m-508 -72 c-3 -7 -5 -2 -5 12 0 14 2 19
5 13 2 -7 2 -19 0 -25z m138 -1 c-9 -5 -19 -6 -22 -3 -4 3 -1 6 5 6 7 0 9 7 5
18 -6 15 -5 15 11 3 16 -13 16 -15 1 -24z m52 -13 c-3 -3 -12 -4 -19 -1 -8 3
-5 6 6 6 11 1 17 -2 13 -5z m-57 -14 c0 -5 -5 -10 -11 -10 -5 0 -7 5 -4 10 3
6 8 10 11 10 2 0 4 -4 4 -10z m65 -10 c3 -6 -1 -7 -9 -4 -18 7 -21 14 -7 14 6
0 13 -4 16 -10z m-198 -82 c-3 -8 -6 -5 -6 6 -1 11 2 17 5 13 3 -3 4 -12 1
-19z m26 -18 c-3 -12 -8 -19 -11 -16 -5 6 5 36 12 36 2 0 2 -9 -1 -20z m394
-52 c-3 -8 -6 -5 -6 6 -1 11 2 17 5 13 3 -3 4 -12 1 -19z m-347 -22 c0 -2 -9
-6 -20 -9 -11 -3 -20 -1 -20 4 0 5 9 9 20 9 11 0 20 -2 20 -4z m447 -28 c-3
-8 -6 -5 -6 6 -1 11 2 17 5 13 3 -3 4 -12 1 -19z m-227 -77 c0 -28 -5 -53 -11
-56 -15 -10 -16 -6 -11 53 5 66 22 68 22 3z"/>
<path d="M1780 2120 c0 -5 5 -10 10 -10 6 0 10 5 10 10 0 6 -4 10 -10 10 -5 0
-10 -4 -10 -10z"/>
<path d="M1747 2033 c-18 -17 -3 -28 41 -29 26 0 53 -2 61 -5 7 -2 15 1 18 7
8 21 -102 46 -120 27z"/>
</g>
</svg>
